# xmcd
#
# Track frame offsets: 
#        150
#        14281
#        27953
#        42115
#        54792
#        67927
#        77966
#        90123
#        104734
#        119982
#        132316
#        146804
#        160209
#        172471
#        187445
#        202797
#        215879
#        230935
#        243744
#        259571
#        274077
#        287955
#        303052
#        314369
#
# Disc length: 4402 seconds
#
# Revision: 1
# Processed by: cddbd v1.5.2PL0 Copyright (c) Steve Scherf et al.
# Submitted via: ExactAudioCopy v0.99pb4
#
DISCID=72113018
DTITLE=Muddy Waters - 1950-1952
DYEAR=2004
DGENRE=
TTITLE0=You're Gonna Need My Help I Said
TTITLE1=Sad Letter Blues
TTITLE2=Early Morning Blues (Before Daybreak)
TTITLE3=Appealing Blues (Hello Little Girl)
TTITLE4=Louisiana Blues
TTITLE5=Evans Shuffle (Ebony Boogie)
TTITLE6=Long Distance Call
TTITLE7=Too Young To Know
TTITLE8=Honey Bee
TTITLE9=Howlin' Wolf
TTITLE10=Country Boy (All Night Long)
TTITLE11=She Moves Me
TTITLE12=My Fault
TTITLE13=Still A Fool
TTITLE14=They Call Me Muddy Waters
TTITLE15=All Night Long
TTITLE16=All Night Long (Faster Version)
TTITLE17=Stuff You Gotta Watch (Gal You Gotta Watch)
TTITLE18=Lonesome Day
TTITLE19=Please Have Mercy
TTITLE20=Who's Gonna Be Your Sweet Man
TTITLE21=Standing Around Crying
TTITLE22=Gone To Main Street
TTITLE23=Iodine In My Coffee
EXTD=
EXTT0=
EXTT1=
EXTT2=
EXTT3=
EXTT4=
EXTT5=
EXTT6=
EXTT7=
EXTT8=
EXTT9=
EXTT10=
EXTT11=
EXTT12=
EXTT13=
EXTT14=
EXTT15=
EXTT16=
EXTT17=
EXTT18=
EXTT19=
EXTT20=
EXTT21=
EXTT22=
EXTT23=
PLAYORDER=
